<svg width="396" height="102" viewBox="0 0 396 102" fill="none" xmlns="http://www.w3.org/2000/svg">
<g clip-path="url(#clip0_1_29)">
<path d="M272.44 21.69H295.44L263.44 101.69H242.44L250.19 79.37L226.44 21.69H247.94C250.93 24.93 259.12 55.68 260.94 55.67C265.91 44.88 269.41 33.05 272.44 21.69Z" fill="#404041"/>
<path d="M363.44 21.69L343.42 50.17L363.44 79.69H340.94L330.45 64.69L320.94 79.69H298.44L319.12 50.2L299.44 21.69H321.94C323.22 21.69 322.46 22.42 331.04 34.65C339.39 23.87 338.1 25.62 340.94 21.69H363.44Z" fill="#404041"/>
<path d="M145.44 0.69V21.69H159.44V37.69H145.44V79.69H123.44V37.69H109.44V21.69H123.44V0.69H145.44Z" fill="#404041"/>
<path d="M188.44 21.69H167.44V79.69H188.44V21.69Z" fill="#404041"/>
<path d="M299.44 21.69H321.94C331.04 34.65 322.46 22.42 331.04 34.65" fill="#404041"/>
<path d="M46.44 0.69V27.69C20.88 6.33 -7.29 32.26 1.72 61.91C7.68 81.51 32.51 87.92 46.43 72.69C46.7 73.62 46.09 79.69 46.43 79.69H68.43V0.69H46.43H46.44ZM34.22 64.07C26.98 64.07 21.11 58.2 21.11 50.96C21.11 43.72 26.98 37.85 34.22 37.85C41.46 37.85 47.33 43.72 47.33 50.96C47.33 58.2 41.46 64.07 34.22 64.07Z" fill="#404041"/>
<path d="M100.927 77.5097C106.046 72.3899 106.046 64.0892 100.927 58.9694C95.8068 53.8496 87.506 53.8496 82.3862 58.9694C77.2664 64.0892 77.2664 72.3899 82.3862 77.5097C87.506 82.6295 95.8068 82.6295 100.927 77.5097Z" fill="#FCB040"/>
<path d="M392.078 22.3728C397.198 17.253 397.198 8.95222 392.078 3.83244C386.958 -1.28733 378.657 -1.28732 373.538 3.83246C368.418 8.95223 368.418 17.253 373.538 22.3728C378.657 27.4926 386.958 27.4926 392.078 22.3728Z" fill="#FCB040"/>
<path d="M216.591 43.4063C221.711 38.2866 221.711 29.9858 216.591 24.866C211.471 19.7462 203.171 19.7462 198.051 24.866C192.931 29.9858 192.931 38.2866 198.051 43.4063C203.171 48.5261 211.471 48.5261 216.591 43.4063Z" fill="#404041"/>
</g>
<defs>
<clipPath id="clip0_1_29">
<rect width="395.91" height="101.69" fill="white"/>
</clipPath>
</defs>
</svg>
